<?xml version="1.0" encoding="UTF-8" standalone="no"?>
<!-- Created with Inkscape (http://www.inkscape.org/) -->

<svg
   xmlns:dc="http://purl.org/dc/elements/1.1/"
   xmlns:cc="http://creativecommons.org/ns#"
   xmlns:rdf="http://www.w3.org/1999/02/22-rdf-syntax-ns#"
   xmlns:svg="http://www.w3.org/2000/svg"
   xmlns="http://www.w3.org/2000/svg"
   xmlns:sodipodi="http://sodipodi.sourceforge.net/DTD/sodipodi-0.dtd"
   xmlns:inkscape="http://www.inkscape.org/namespaces/inkscape"
   width="100mm"
   height="40mm"
   viewBox="0 0 100 40"
   version="1.1"
   id="svg8"
   inkscape:export-filename="C:\Users\Alexander\Desktop\tendercle.png"
   inkscape:export-xdpi="508"
   inkscape:export-ydpi="508"
   inkscape:version="0.92.4 (5da689c313, 2019-01-14)"
   sodipodi:docname="tendercle.svg">
  <defs
     id="defs2" />
  <sodipodi:namedview
     id="base"
     pagecolor="#ffffff"
     bordercolor="#666666"
     borderopacity="1.0"
     inkscape:pageopacity="0.0"
     inkscape:pageshadow="2"
     inkscape:zoom="1.4"
     inkscape:cx="177.70137"
     inkscape:cy="72.547533"
     inkscape:document-units="mm"
     inkscape:current-layer="layer1"
     showgrid="false"
     inkscape:window-width="1920"
     inkscape:window-height="986"
     inkscape:window-x="-11"
     inkscape:window-y="-11"
     inkscape:window-maximized="1" />
  <metadata
     id="metadata5">
    <rdf:RDF>
      <cc:Work
         rdf:about="">
        <dc:format>image/svg+xml</dc:format>
        <dc:type
           rdf:resource="http://purl.org/dc/dcmitype/StillImage" />
        <dc:title></dc:title>
      </cc:Work>
    </rdf:RDF>
  </metadata>
  <g
     inkscape:label="Layer 1"
     inkscape:groupmode="layer"
     id="layer1"
     transform="translate(0,-257)">
    <path
       style="fill:#800080;stroke-width:0.12939973"
       d="m 11.4487,292.08525 c 0.178407,-0.6317 0.304261,-1.42138 0.288451,-1.80992 -0.03877,-0.95028 -0.254825,-1.16681 -1.120183,-1.12272 l -0.6729807,0.0343 -0.371521,1.07466 c -0.4299687,1.24361 -0.4499577,2.01266 -0.06794,2.60247 l 0.259965,0.40134 -0.6068167,0.088 c -0.3337897,0.0483 -0.6149447,0.0319 -0.6248787,-0.0367 -0.0099,-0.0685 -0.2769567,-0.19397 -0.5934077,-0.2788 -0.7943564,-0.21284 -0.9835154,-0.42439 -0.6725084,-0.7519 0.1330667,-0.13997 0.2880567,-0.4562 0.3444757,-0.70248 l 0.103045,-0.44768 0.07738,0.50061 c 0.09512,0.61515 0.2748457,0.7341 0.3915487,0.25913 0.128401,-0.52255 0.3186567,-0.46485 0.3190327,0.0968 5.21e-4,0.81524 0.120242,0.52699 0.28564,-0.68779 0.1569397,-1.15244 0.5068047,-2.12248 0.9239454,-2.56175 0.250663,-0.26386 0.248152,-0.63658 -0.004,-0.60005 -0.233355,0.0336 -0.5344187,0.45567 -0.8723954,1.22197 -0.346602,0.78591 -0.410389,0.59664 -0.129283,-0.38344 0.3731157,-1.30068 0.07604,-1.34489 -0.6695137,-0.0996 -0.4988347,0.83323 -0.7457334,0.96737 -0.8212954,0.44614 -0.0377,-0.26021 0.05974,-0.33221 0.4672747,-0.34542 0.12051,-0.004 0.2630657,-0.19239 0.3383517,-0.44778 0.221192,-0.74926 0.5537557,-0.97173 1.5254291,-1.02032 l 0.8517927,-0.0425 -0.09431,-0.65083 c -0.111057,-0.76651 0.166052,-1.49149 0.929321,-2.43117 0.482092,-0.59347 0.570305,-0.91285 0.271235,-0.9818 -0.288358,-0.0662 -0.64018,0.29288 -0.942456,0.96162 -0.30654,0.6787 -0.509365,0.80652 -0.328872,0.20729 0.05624,-0.18624 0.228496,-0.59104 0.383164,-0.89946 0.312263,-0.62293 0.282806,-0.66133 -0.208439,-0.27154 -0.4086397,0.32435 -0.5602917,0.24225 -0.316151,-0.17162 0.232009,-0.39279 0.869539,-0.485 1.609734,-0.23313 l 0.561017,0.19091 -0.15656,-0.42592 c -0.28451,-0.77398 -0.337436,-1.88231 -0.126789,-2.65442 0.150159,-0.55008 0.37814,-0.92666 0.920305,-1.51981 0.615541,-0.67337 0.679516,-0.78936 0.438111,-0.79465 -0.420853,-0.009 -1.237308,0.78868 -1.56388,1.52823 -0.158041,0.35794 -0.315174,0.62735 -0.349125,0.59876 -0.121225,-0.10214 0.395079,-1.34851 0.756537,-1.82623 0.504319,-0.66662 0.806117,-0.77141 1.532652,-0.53245 0.80221,0.26386 0.823635,0.25004 0.321684,-0.20842 -0.234246,-0.21394 -0.521625,-0.49451 -0.638499,-0.62356 -0.198109,-0.21861 -0.193666,-0.2267 0.06525,-0.1185 0.257359,0.10756 0.298991,0.039 0.568973,-0.93626 0.506958,-1.83114 1.25495,-2.85524 2.620056,-3.5869 0.702805,-0.37668 0.691929,-0.63828 -0.02484,-0.59504 -0.433671,0.0263 -0.583803,0.13141 -1.222264,0.85726 -1.011937,1.15025 -1.127352,1.24399 -0.57189,0.46403 0.537801,-0.75461 1.480702,-1.65819 1.937411,-1.85659 0.223576,-0.0968 0.408082,-0.0551 0.719737,0.16489 0.481841,0.33967 0.724684,0.34185 0.903424,0.008 0.228053,-0.42577 0.754718,-0.74098 1.562149,-0.93486 0.706305,-0.1693 1.170274,-0.17769 2.54247,-0.0437 0.351324,0.0342 0.361391,0.0226 0.158214,-0.18427 -0.355991,-0.36252 -1.210462,-0.5808 -1.920286,-0.49052 -0.566995,0.0721 -0.624172,0.0583 -0.385313,-0.0934 0.160394,-0.10119 0.61668,-0.18631 1.063923,-0.19689 0.565164,-0.0136 0.802299,-0.0692 0.851144,-0.19936 0.05016,-0.13302 0.136351,-0.15174 0.328932,-0.0707 0.269582,0.11333 0.513515,0.50097 0.802107,1.27454 l 0.16633,0.44562 1.149666,-0.19339 c 0.632369,-0.10619 1.415606,-0.15795 1.740599,-0.1148 0.324997,0.0433 0.61578,0.0407 0.646219,-0.005 0.09146,-0.13864 -0.447972,-0.31038 -1.409927,-0.44866 -0.837276,-0.12038 -0.869584,-0.1368 -0.412752,-0.21002 0.582935,-0.0936 1.687966,-0.0388 2.189935,0.10829 0.31882,0.0934 0.363705,0.17036 0.450924,0.77262 0.124983,0.8625 0.518847,1.22504 1.351964,1.24438 0.674215,0.0156 2.478382,-0.38939 2.607594,-0.58541 0.04795,-0.0729 -0.242408,-0.18551 -0.652313,-0.25312 -1.083188,-0.17862 -1.091527,-0.20516 -0.08444,-0.26921 0.973744,-0.0618 1.02787,-0.20366 0.154957,-0.40563 -0.470902,-0.10871 -0.465316,-0.1125 0.418192,-0.23803 l 0.895554,-0.12672 0.164376,0.61239 c 0.258263,0.96253 0.963386,1.3744 2.074448,1.21187 0.640431,-0.0938 1.438526,-0.43911 1.413662,-0.61143 -0.02207,-0.15297 -0.247839,-0.20608 -0.972858,-0.22912 l -0.604127,-0.0192 1.063446,-0.31801 c 1.055317,-0.31567 1.069517,-0.31564 1.843517,-0.0393 1.08464,0.38785 1.67751,0.38723 2.22512,-0.002 l 0.4412,-0.31396 -0.73679,0.02 c -0.51301,0.0139 -0.60399,-0.006 -0.29953,-0.0669 0.24047,-0.0477 0.72058,-0.31487 1.06684,-0.59391 0.34638,-0.27882 0.78909,-0.52991 0.9834,-0.55854 0.452,-0.0656 1.05491,-0.46258 1.32553,-0.87331 0.30293,-0.45953 0.22853,-0.64474 -0.14103,-0.35139 l -0.31157,0.24745 0.21916,-0.83543 c 0.17873,-0.68114 0.28351,-0.85999 0.5669,-0.96838 0.75234,-0.2878 1.28643,-1.41115 1.12876,-2.37461 -0.0337,-0.20609 0.054,-0.64112 0.1948,-0.96681 0.27414,-0.63381 0.28324,-1.74657 0.0169,-2.07384 -0.21456,-0.26411 -0.26964,-0.10233 -0.31023,0.91383 -0.0657,1.64219 -0.43637,2.567 -1.61951,4.04076 -0.45253,0.56371 -0.83326,1.14839 -0.84604,1.29927 -0.0169,0.20062 -0.10227,0.26899 -0.31698,0.2545 -0.22362,-0.0151 -0.28509,0.0403 -0.25719,0.23282 0.044,0.30429 -0.004,0.31847 -0.38843,0.11428 -0.24077,-0.12801 -0.46078,-0.10727 -1.18175,0.10962 -1.78654,0.53821 -3.597896,0.42762 -7.898226,-0.48255 -4.114368,-0.87086 -5.163699,-0.98494 -7.173793,-0.77987 -2.011606,0.20521 -3.371796,0.58076 -5.064527,1.39857 -2.98638,1.44219 -5.474815,3.6921 -7.466381,6.75102 -1.631274,2.50543 -2.3265064,4.36285 -3.5987178,9.61453 -0.9839344,4.06256 -2.0448278,7.15973 -2.9545472,8.62742 -0.370581,0.59781 -0.418111,0.62943 -0.9724807,0.64708 -0.3205737,0.0102 -0.5896314,-0.0281 -0.5978914,-0.085 -0.0084,-0.057 0.1198657,-0.36558 0.2846307,-0.68598 0.9937604,-1.93202 1.9311708,-4.73591 2.9178922,-8.72778 1.5280354,-6.1818 2.1903158,-7.90087 4.1311202,-10.72426 2.560949,-3.72553 6.062056,-6.35547 10.065928,-7.56134 1.634668,-0.49233 2.434017,-0.60646 4.227023,-0.60551 1.985828,0.002 3.536669,0.20542 6.521046,0.85685 3.702779,0.80826 4.62098,0.9294 6.084654,0.80301 3.03685,-0.2623 5.22929,-2.15235 5.62686,-4.85076 0.12734,-0.86456 0.0595,-1.37081 -0.24726,-1.84436 -0.51805,-0.79979 0.10021,-1.10087 1.03839,-0.50604 0.9268,0.58778 1.42528,2.11888 1.0236,3.14483 -0.10444,0.2669 -0.29314,0.87453 -0.41872,1.35046 -0.14009,0.52991 -0.43327,1.14774 -0.75649,1.59437 -0.31156,0.43049 -0.51097,0.8451 -0.48675,1.01213 0.12299,0.84877 -0.79904,2.33508 -1.51279,2.43848 -0.26907,0.0391 -0.39165,0.17749 -0.5716,0.64448 -0.31169,0.80965 -1.04598,1.47413 -2.1094,1.90877 -0.48746,0.19907 -1.21697,0.56777 -1.62132,0.8189 -1.05704,0.65678 -2.383818,0.84846 -3.402432,0.49102 l -0.737207,-0.25829 -0.347124,0.38466 c -0.299459,0.33199 -0.480896,0.40442 -1.324575,0.52639 -1.065962,0.15444 -2.120844,0.0559 -2.960579,-0.27666 l -0.537927,-0.21307 -0.7288,0.39602 c -0.886214,0.48145 -1.550534,0.59001 -2.903446,0.47449 -0.878164,-0.0749 -1.087215,-0.0529 -1.396405,0.1471 -0.670234,0.43341 -2.095772,1.02024 -2.430154,1.00068 -0.408544,-0.0241 -0.46978,0.0908 -0.713939,1.34153 -0.273316,1.40001 -0.729877,2.44512 -1.47018,3.3661 -0.349673,0.43499 -0.664942,0.87367 -0.700607,0.97489 -0.03551,0.10124 -0.08242,0.64539 -0.103938,1.20934 -0.06949,1.82174 -0.514307,2.9743 -1.665682,4.31571 -0.391722,0.45638 -0.481518,0.85321 -0.368978,1.6301 0.169996,1.17303 -0.0956,2.15635 -0.901455,3.33802 -0.555434,0.8144 -0.806441,1.07111 -1.141625,1.16766 -0.281857,0.0808 -0.472032,0.0654 -0.552743,-0.0453 -0.170068,-0.23314 -0.40871,-0.17516 -0.916962,0.22321 -0.238762,0.18707 -0.647421,0.37163 -0.908905,0.40885 l -0.474836,0.0688 z m 2.788363,-1.13591 c 0.591932,-0.46395 0.963458,-1.32954 1.006692,-2.34491 0.05991,-1.40704 -0.30165,-1.85504 -1.081693,-1.34033 -0.761029,0.50205 -1.318884,2.05793 -1.154143,3.21844 0.134657,0.94875 0.457901,1.07151 1.229176,0.4668 z m -0.249983,-0.85601 c -0.148636,-0.15028 -0.146541,-0.30738 0.01087,-0.86572 0.274784,-0.97442 0.475316,-1.01715 0.558217,-0.11907 0.05059,0.54804 0.01278,0.76966 -0.160756,0.94244 -0.195678,0.19502 -0.25187,0.20055 -0.408349,0.0423 z m -1.563592,-2.15419 c 0.515821,-0.54318 0.912962,-3.03319 0.534653,-3.35198 -0.266145,-0.22425 -1.183594,-0.004 -1.598182,0.38289 -0.518107,0.48407 -0.698396,1.22191 -0.503083,2.05933 0.257016,1.1021 0.983351,1.52393 1.566607,0.90973 z m -0.908543,-0.98295 c -0.193458,-0.16292 -0.213423,-0.9495 -0.03051,-1.19904 0.379347,-0.5175 0.958057,-0.34022 1.054132,0.32295 0.07715,0.53222 -0.671408,1.17294 -1.023654,0.87612 z m 0.576439,-0.85173 c 0.03007,-0.3553 -0.03415,-0.44988 -0.200203,-0.29475 -0.139348,0.13028 -0.08383,0.64189 0.06724,0.61999 0.05857,-0.009 0.118573,-0.15482 0.13287,-0.32523 z m 4.254163,-1.10785 c 0.235633,-0.32019 0.510962,-0.9061 0.611793,-1.30206 0.317353,-1.24637 -0.0753,-2.69327 -0.706092,-2.60186 -0.577302,0.0838 -1.309546,1.58402 -1.464594,3.00113 -0.176349,1.61162 0.674496,2.10433 1.558893,0.90279 z m -0.952673,-0.5153 c -0.255493,-0.25845 -0.109838,-1.07393 0.279831,-1.56679 0.543203,-0.68714 0.858875,-0.54629 0.777356,0.34687 -0.09565,1.04753 -0.624484,1.65773 -1.05716,1.21994 z m -1.671275,-2.29792 c 0.563914,-0.5604 0.966889,-1.68463 0.862309,-2.40609 -0.218127,-1.50529 -1.573922,-1.14847 -2.005338,0.52784 -0.218627,0.84971 -0.142742,1.28308 0.312143,1.78151 0.433132,0.47452 0.448779,0.47638 0.83085,0.0968 z m -0.76152,-0.56754 c -0.196048,-0.16526 -0.211434,-0.96382 -0.02557,-1.33301 0.240469,-0.47771 0.55544,-0.65439 0.904959,-0.50727 0.479375,0.20156 0.403299,1.11368 -0.132906,1.59393 -0.324011,0.29014 -0.590183,0.37822 -0.746309,0.2467 z m 0.628584,-1.05023 c -0.01726,-0.11827 -0.09224,-0.18148 -0.166725,-0.14052 -0.211669,0.11648 -0.206518,0.41416 0.0067,0.38327 0.105177,-0.0151 0.176963,-0.12485 0.160089,-0.24271 z m 4.898547,-1.81402 c 0.564436,-0.94509 1.155643,-2.86229 0.985296,-3.19538 -0.207223,-0.40529 -1.517917,0.3059 -2.244896,1.21809 -0.33,0.41409 -0.347834,0.50896 -0.263766,1.40348 0.165257,1.75811 0.696472,1.95823 1.523317,0.5738 z m -0.720015,-0.18987 c -0.293801,-0.0841 -0.232814,-0.50481 0.156753,-1.08087 0.211762,-0.31309 0.423466,-0.57485 0.47048,-0.58166 0.184465,-0.0267 0.167276,0.65219 -0.02826,1.11693 -0.216585,0.51479 -0.33376,0.62156 -0.599008,0.54557 z m -1.760637,-0.0283 c 0.0086,-0.29032 0.03998,-0.64052 0.06968,-0.77829 0.03173,-0.14692 9.97e-4,-0.24288 -0.07395,-0.232 -0.142531,0.0205 -0.25759,0.89339 -0.184983,1.40201 0.06535,0.4577 0.170214,0.2403 0.189348,-0.39175 z m -0.456659,-0.59803 c -0.01628,-0.11215 -0.08389,-0.19585 -0.150288,-0.18625 -0.06635,0.01 -0.107448,0.10922 -0.09123,0.22122 0.01628,0.11215 0.0839,0.19585 0.150281,0.18624 0.06635,-0.01 0.107452,-0.10924 0.09123,-0.22123 z m 1.101135,-2.71169 c 0.851007,-1.30846 1.056612,-1.86596 0.842507,-2.28464 -0.128033,-0.25026 -0.860866,-0.15043 -1.268237,0.17289 -0.659408,0.52325 -1.523916,2.37102 -1.425865,3.04769 0.04305,0.29698 0.37284,0.5023 0.733457,0.4566 0.134168,-0.0163 0.605042,-0.60363 1.118145,-1.39249 z m -0.829289,-0.15405 c -0.124659,-0.16531 0.303001,-1.09176 0.545867,-1.18241 0.363449,-0.13549 0.537977,0.13228 0.323016,0.49624 -0.247146,0.41838 -0.763447,0.82607 -0.868946,0.68622 z m 20.625224,-2.65657 c 0.292321,-0.0888 0.653671,-0.27425 0.803381,-0.41111 0.2708,-0.2478 0.27016,-0.24823 -0.13781,-0.10053 -0.22559,0.0814 -0.768866,0.27533 -1.207387,0.4307 -0.438499,0.15532 -0.750069,0.32186 -0.691888,0.37108 0.05807,0.0489 0.239891,0.0401 0.403981,-0.0196 0.164127,-0.0597 0.537501,-0.18141 0.829733,-0.27053 z m -18.025327,2.25359 c 0.246844,-0.19387 0.412895,-0.38263 0.368457,-0.42009 -0.09977,-0.084 -1.083383,0.50732 -1.153196,0.69285 -0.08787,0.23403 0.317848,0.093 0.784687,-0.27284 z m 13.465026,-1.94924 c 0.427441,-0.26088 0.115635,-0.41997 -0.619141,-0.31593 -0.298953,0.0424 -1.036242,0.0475 -1.638343,0.0115 -1.083814,-0.0648 -1.368452,0.005 -1.065793,0.25953 0.535824,0.45151 2.611248,0.4795 3.323289,0.0448 z m -9.309437,1.06316 c 0.935026,-0.51926 0.733371,-0.69566 -0.393708,-0.34441 -0.918371,0.28624 -1.339959,0.54594 -1.196117,0.73655 0.148546,0.19723 0.831456,0.0285 1.589689,-0.39217 z m 4.48548,-0.61991 c -0.03156,-0.21702 -0.800373,-0.31361 -1.588261,-0.19941 -0.782993,0.11346 -1.003826,0.35011 -0.384226,0.41185 0.189206,0.0189 0.401257,0.0467 0.471287,0.0621 0.28939,0.0634 1.517602,-0.16133 1.501198,-0.27451 z m -7.296963,0.68898 c -0.01687,-0.1165 -0.08031,-0.16535 -0.141052,-0.10863 -0.05997,0.0576 -0.07078,0.15552 -0.02255,0.21943 0.130858,0.17336 0.198105,0.12779 0.163346,-0.11118 z m 6.425243,-1.17485 c 1.029568,-0.12768 1.174763,-0.17226 0.968818,-0.29847 -0.133258,-0.0815 -0.55798,-0.14231 -0.944072,-0.13429 -0.386001,0.008 -0.951037,0.017 -1.255619,0.0207 -0.643784,0.008 -1.030804,0.31804 -0.846342,0.67879 0.09257,0.18087 0.184256,0.19089 0.490008,0.0531 0.206892,-0.0933 0.921047,-0.23758 1.587234,-0.31971 z m -4.84793,0.0527 c 1.059528,-0.38726 1.259811,-0.56756 1.187285,-1.06833 -0.112896,-0.77906 -0.838328,-1.08338 -2.137862,-0.89692 -1.756385,0.25149 -2.76994,1.85966 -1.350298,2.14162 0.884959,0.17576 1.45753,0.1319 2.300878,-0.17634 z m -1.858139,-0.81579 c -0.03959,-0.27277 0.304729,-0.49898 0.807713,-0.53084 0.371207,-0.0234 0.537003,0.0272 0.557737,0.17035 0.02213,0.15272 -0.142731,0.23907 -0.658828,0.3451 -0.378587,0.0778 -0.696592,0.0847 -0.706626,0.0154 z m 7.177001,-0.45345 c 0.21041,-0.0684 0.375444,-0.17453 0.366164,-0.23724 -0.05286,-0.3644 -2.729957,-0.57524 -3.41722,-0.26902 -0.3803,0.16987 -0.306402,0.36926 0.229925,0.62002 0.735836,0.34403 1.501072,0.31311 2.820953,-0.11396 z m -1.641503,-0.0555 c -0.50547,-0.0611 -0.540672,-0.25826 -0.05069,-0.2844 0.263934,-0.0142 0.513266,0.0475 0.554023,0.13722 0.07514,0.16514 -0.05134,0.20202 -0.503421,0.14702 z M 6.7804481,293.55941 c -0.05147,-0.0692 -0.03684,-0.13334 0.03396,-0.14341 0.07038,-0.01 0.1367927,0.0426 0.1475297,0.11731 0.0109,0.0747 -0.0043,0.13926 -0.03396,0.14342 -0.02937,0.004 -0.09568,-0.0486 -0.1475287,-0.11731 z m -0.6132497,-0.0349 c -0.117154,-0.1549 0.04205,-0.57572 0.2277237,-0.60264 0.152524,-0.0222 0.156928,0.16292 0.01138,0.47822 -0.09103,0.1972 -0.1578937,0.23202 -0.2390837,0.12451 z m 0.1657457,-1.18465 c 0.145659,-0.30677 0.306327,-0.79762 0.357102,-1.09075 l 0.09244,-0.53292 0.0884,0.55006 c 0.09822,0.6115 0.0031,0.87598 -0.4771497,1.3262 l -0.3255687,0.30527 z m 3.6918789,-0.63743 c -0.3622057,-0.30519 -0.3682527,-0.3936 -0.06515,-0.95063 0.3973847,-0.73034 0.8576557,-0.64898 1.1392897,0.20126 0.106621,0.32199 0.08393,0.45209 -0.115663,0.66226 -0.330377,0.34784 -0.618011,0.37399 -0.958469,0.0872 z m 0.617868,-0.69038 c 0.0036,-0.13426 -0.07094,-0.22089 -0.1766,-0.20561 -0.224252,0.0326 -0.327579,0.27359 -0.193499,0.45138 0.138005,0.18298 0.36258,0.0338 0.369986,-0.2459 z m -2.9007015,-3.21994 c -0.01709,-0.15904 0.0068,-0.19541 0.06102,-0.0927 0.04952,0.0928 0.06172,0.21077 0.02818,0.2617 -0.03362,0.0509 -0.07373,-0.0252 -0.08927,-0.16909 z m 0.9326704,-2.00392 c -0.01156,-0.0792 0.03874,-0.11407 0.112486,-0.0767 0.07302,0.0366 0.136741,0.0935 0.141575,0.12636 0.0047,0.033 -0.04572,0.0676 -0.112488,0.0767 -0.06635,0.01 -0.130051,-0.0473 -0.141585,-0.12635 z m 0.139287,-1.13062 c -0.05605,-0.0728 -0.07522,-0.17179 -0.04421,-0.21875 0.08309,-0.12625 0.4489877,-0.001 0.4725317,0.16161 0.02678,0.18431 -0.299407,0.22798 -0.4282777,0.057 z m 0.5380377,-2.36821 c -0.161534,-0.31584 -0.143344,-0.36327 0.07994,-0.20827 0.2278487,0.15832 0.2993787,0.37264 0.1323147,0.39687 -0.05923,0.009 -0.1548627,-0.0763 -0.2122657,-0.1886 z m 0.4644787,-0.95737 c -0.141841,-0.13198 -0.218765,-0.24563 -0.170901,-0.2526 0.172347,-0.025 0.5953017,0.20371 0.6138597,0.33197 0.03097,0.21311 -0.166681,0.17772 -0.4429737,-0.0794 z m 0.2450857,-0.824 c -0.2434507,-0.2052 -0.2455597,-0.21812 -0.04602,-0.29263 0.280218,-0.10448 0.552637,0.12556 0.408382,0.34413 -0.07609,0.11527 -0.182139,0.10037 -0.362351,-0.0515 z m 0.219251,-0.86071 c -0.08853,-0.0257 -0.169042,-0.10259 -0.178905,-0.17114 -0.02907,-0.20066 0.418999,-0.20691 0.615196,-0.008 0.149148,0.15093 0.140964,0.18574 -0.04771,0.20401 -0.125183,0.0122 -0.30003,0.001 -0.388503,-0.0246 z m 0.592846,-0.98623 c 0.03199,-0.22056 0.296792,-0.29675 0.335465,-0.0966 0.01434,0.0741 -0.06116,0.16926 -0.168546,0.21106 -0.121776,0.0475 -0.184309,0.005 -0.166912,-0.11453 z m 0.329123,-1.43932 c -0.125605,-0.14878 -0.207879,-0.30139 -0.183275,-0.33887 0.06721,-0.10206 0.718574,0.27269 0.74081,0.42629 0.03521,0.24341 -0.326313,0.18676 -0.557605,-0.0873 z m 0.556124,-0.9862 c -0.191837,-0.0466 -0.267938,-0.41599 -0.09094,-0.44166 0.124396,-0.0182 0.362709,0.33607 0.289322,0.43052 -0.02101,0.0279 -0.110703,0.0327 -0.198557,0.0111 z m 0.581973,-1.1692 c -0.05614,-0.10953 -0.07656,-0.23765 -0.04559,-0.28461 0.08845,-0.13429 0.336804,0.0357 0.368152,0.25204 0.0378,0.26065 -0.194074,0.28401 -0.322626,0.0325 z m 0.845322,-0.8916 c -0.306976,-0.08 -0.430907,-0.34264 -0.177756,-0.37575 0.231618,-0.0304 0.519765,0.15141 0.49141,0.30978 -0.01588,0.0862 -0.13818,0.11177 -0.313629,0.0661 z m 0.443139,-0.95812 c -0.25089,-0.25378 -0.098,-0.43106 0.17401,-0.20185 0.131319,0.11068 0.177557,0.22641 0.114147,0.2857 -0.0586,0.055 -0.188306,0.0173 -0.288138,-0.0839 z m 23.932143,-3.90004 c -0.0527,-0.0446 -0.11382,-0.20614 -0.13626,-0.35893 -0.038,-0.2622 -0.0267,-0.26654 0.19941,-0.0761 0.16353,0.13779 0.20703,0.25174 0.13627,0.35897 -0.0569,0.0864 -0.14641,0.12088 -0.1994,0.0761 z M 38.208,268.9607 c -0.0561,-0.10953 -0.0763,-0.23775 -0.0456,-0.28463 0.0885,-0.1343 0.33684,0.0358 0.36816,0.25202 0.0377,0.26067 -0.19397,0.28405 -0.32255,0.0327 z m -23.868471,3.17593 c -0.03473,-0.23988 0.231238,-0.23576 0.342374,0.005 0.03897,0.085 -0.01496,0.16681 -0.120058,0.182 -0.105177,0.0151 -0.205208,-0.0691 -0.222281,-0.18738 z m 20.813385,-3.00453 c -0.0543,-0.1065 -0.07766,-0.30595 -0.05158,-0.44322 0.04428,-0.23254 0.06205,-0.23324 0.258161,-0.0108 0.116188,0.13097 0.222108,0.3188 0.236379,0.41645 0.03557,0.24532 -0.321081,0.27607 -0.44308,0.0377 z m 3.825406,-0.54829 c -0.23792,-0.24074 -0.12188,-0.54379 0.13881,-0.36264 0.21355,0.14834 0.30888,0.49955 0.14167,0.52391 -0.0582,0.009 -0.18451,-0.0641 -0.28053,-0.16129 z m -2.718514,0.26278 c -0.107208,-0.21048 -0.02885,-0.3818 0.137136,-0.29883 0.151055,0.0753 0.201214,0.44427 0.063,0.46429 -0.0592,0.009 -0.149449,-0.0659 -0.200463,-0.16539 z m -1.994316,0.13079 c -0.05614,-0.10953 -0.07628,-0.23776 -0.04563,-0.28463 0.08845,-0.13429 0.336823,0.0358 0.368174,0.25204 0.03769,0.26065 -0.193982,0.28405 -0.322638,0.0325 z m 5.63262,-0.82132 c -0.0171,-0.11831 0.0369,-0.20017 0.12005,-0.182 0.23606,0.0514 0.31559,0.33849 0.10202,0.36951 -0.1053,0.0152 -0.20522,-0.0691 -0.2223,-0.18741 z m -6.461042,0.78607 c -0.0515,-0.0433 -0.109843,-0.20672 -0.130861,-0.36237 -0.03655,-0.27854 -0.03334,-0.27934 0.178477,-0.045 0.118637,0.13085 0.222819,0.28728 0.231134,0.34804 0.01924,0.13293 -0.149393,0.1693 -0.279066,0.0598 z m -18.246789,2.25947 c -0.01698,-0.11647 0.02363,-0.21962 0.09,-0.22926 0.06635,-0.01 0.129063,0.0397 0.139287,0.11026 0.01005,0.0702 -0.03028,0.17347 -0.09,0.22925 -0.05964,0.0559 -0.122434,0.006 -0.139296,-0.11026 z M 31.5235,268.69882 c -0.06651,-0.17498 -0.116294,-0.43296 -0.110051,-0.57339 0.0088,-0.2037 0.06615,-0.17157 0.285635,0.15975 0.265588,0.40077 0.287732,0.6823 0.05672,0.71574 -0.06099,0.01 -0.165828,-0.12702 -0.232354,-0.30199 z m -0.767382,-0.28109 c -0.125985,-0.22958 -0.206529,-0.45185 -0.178789,-0.49391 0.07907,-0.12031 0.465194,0.37428 0.504674,0.64652 0.05379,0.37091 -0.07014,0.31281 -0.325837,-0.15268 z m -0.760829,0.17965 c -0.182416,-0.27805 -0.462068,-1.07713 -0.381446,-1.0888 0.11104,-0.0161 0.695128,0.83078 0.727443,1.05505 0.0424,0.29277 -0.1633,0.31283 -0.346044,0.0337 z m -13.971425,1.94936 c -0.07115,-0.12646 -0.100888,-0.27296 -0.06626,-0.32551 0.10246,-0.15586 0.229544,0.0238 0.21188,0.2995 -0.0156,0.24453 -0.02206,0.24571 -0.145613,0.0261 z m 12.289941,-1.91367 c -0.140146,-0.28014 -0.501596,-1.4849 -0.46322,-1.54317 0.09279,-0.14068 0.6712,0.83355 0.728551,1.22741 0.06325,0.43288 -0.106204,0.63446 -0.26544,0.31579 z m 0.760737,-0.28968 c -0.09162,-0.18084 -0.22227,-0.48943 -0.28988,-0.68603 l -0.123024,-0.3574 0.296428,0.2844 c 0.163017,0.1564 0.322028,0.46097 0.353264,0.67684 0.07017,0.48439 -0.0171,0.51467 -0.236749,0.0821 z m -11.073606,0.98641 c -0.109257,-0.16212 -0.125491,-0.25915 -0.04782,-0.27041 0.06623,-0.01 0.196587,0.0963 0.289341,0.2354 0.10759,0.16322 0.125508,0.25917 0.04784,0.27045 -0.06635,0.01 -0.196607,-0.0964 -0.289376,-0.23543 z m 8.61958,-1.42241 c -0.121011,-0.15412 -0.28149,-0.45841 -0.356492,-0.67639 l -0.136404,-0.39627 0.365928,0.33608 c 0.201214,0.18488 0.387636,0.48545 0.413889,0.66816 0.05965,0.41183 -0.0052,0.42735 -0.287034,0.0687 z m 0.703699,-0.29234 c -0.154113,-0.25402 -0.260288,-0.49185 -0.236191,-0.52843 0.0585,-0.0888 0.663843,0.62342 0.691375,0.81304 0.04424,0.30523 -0.184022,0.16264 -0.455172,-0.28465 z m -8.295597,1.14999 c -0.0215,-0.14941 -0.01415,-0.2753 0.01679,-0.27976 0.03055,-0.005 0.132023,0.1056 0.224785,0.24475 0.134631,0.20186 0.13127,0.25825 -0.01678,0.27975 -0.104811,0.0153 -0.202451,-0.0911 -0.224787,-0.24474 z m 6.300369,-1.3092 c -0.248319,-0.38067 -0.37149,-0.66351 -0.281522,-0.64383 0.289895,0.0635 0.719162,0.65299 0.721348,0.9911 0.0018,0.28587 -0.05875,0.23805 -0.439826,-0.34727 z m -1.02004,0.57876 c -0.03639,-0.0521 -0.13846,-0.32448 -0.226325,-0.60584 -0.122335,-0.39297 -0.121162,-0.50326 0.0073,-0.47616 0.236282,0.0494 0.58045,0.64712 0.529508,0.91917 -0.04491,0.24063 -0.198929,0.32133 -0.310423,0.16281 z m -4.303046,0.37487 c -0.139417,-0.2724 0.0015,-0.45088 0.176443,-0.22359 0.18617,0.24131 0.203322,0.38255 0.05,0.40476 -0.06836,0.0106 -0.170379,-0.0716 -0.226463,-0.18117 z m 1.238353,-0.18452 c -0.05691,-0.1127 -0.118685,-0.30259 -0.136115,-0.42281 -0.02618,-0.18042 0.0059,-0.17701 0.183735,0.0192 0.243045,0.26859 0.326537,0.56856 0.164494,0.59208 -0.05922,0.009 -0.154853,-0.0763 -0.212263,-0.18861 z m 1.108096,-0.0374 c -0.04935,-0.0416 -0.116035,-0.25632 -0.147846,-0.47717 -0.04942,-0.34149 -0.02743,-0.38012 0.147498,-0.25861 0.113053,0.0786 0.221718,0.25395 0.241027,0.39006 0.03909,0.26957 -0.09792,0.46634 -0.24087,0.34591 z m 1.203605,-0.32002 c -0.283497,-0.27175 -0.549397,-0.86127 -0.341401,-0.75731 0.178133,0.0892 0.663214,0.81573 0.604037,0.90543 -0.02291,0.0349 -0.140973,-0.0323 -0.262566,-0.14815 z"
       id="path1130"
       inkscape:connector-curvature="0" />
    <flowRoot
       xml:space="preserve"
       id="flowRoot1132"
       style="font-style:normal;font-weight:normal;font-size:40px;line-height:1.25;font-family:sans-serif;letter-spacing:0px;word-spacing:0px;fill:#000000;fill-opacity:1;stroke:none"
       transform="scale(0.26458333)"><flowRegion
         id="flowRegion1134"><rect
           id="rect1136"
           width="132.32999"
           height="42.426407"
           x="-135.36044"
           y="1510.4182" /></flowRegion><flowPara
         id="flowPara1138">Tsdf</flowPara></flowRoot>    <text
       xml:space="preserve"
       style="font-style:normal;font-weight:normal;font-size:10.58333302px;line-height:1.25;font-family:sans-serif;letter-spacing:0px;word-spacing:0px;fill:#000000;fill-opacity:1;stroke:none;stroke-width:0.26458332"
       x="20.901512"
       y="290.31357"
       id="text1142"><tspan
         sodipodi:role="line"
         x="20.901512"
         y="290.31357"
         style="font-style:normal;font-variant:normal;font-weight:normal;font-stretch:normal;font-size:19.40277863px;font-family:Calibri;-inkscape-font-specification:Calibri;fill:#000000;stroke-width:0.26458332"
         id="tspan1150">Tendercle</tspan></text>
  </g>
</svg>
